<?xml version="1.0" standalone="no"?>
<!DOCTYPE svg PUBLIC "-//W3C//DTD SVG 20010904//EN"
 "http://www.w3.org/TR/2001/REC-SVG-20010904/DTD/svg10.dtd">
<svg version="1.0" xmlns="http://www.w3.org/2000/svg"
 width="500.000000pt" height="500.000000pt" viewBox="0 0 500.000000 500.000000"
 preserveAspectRatio="xMidYMid meet">

<g transform="translate(0.000000,500.000000) scale(0.100000,-0.100000)"
fill="#000000" stroke="none">
<path d="M2216 3384 c-3 -9 -6 -20 -6 -25 0 -5 121 -9 290 -9 169 0 290 4 290
9 0 41 0 41 -290 41 -244 0 -279 -2 -284 -16z"/>
<path d="M2196 3295 c-5 -13 33 -15 304 -15 271 0 309 2 304 15 -9 23 -599 23
-608 0z"/>
<path d="M2175 3219 c-6 -17 4 -32 43 -73 86 -89 166 -222 211 -355 28 -81 61
-217 62 -256 l1 -30 8 30 c5 17 21 80 36 140 47 189 132 354 249 479 32 34 44
54 40 67 -6 18 -23 19 -325 19 -316 0 -319 0 -325 -21z"/>
<path d="M1926 3127 c-58 -208 -116 -427 -116 -434 0 -6 37 -19 83 -30 224
-56 434 -190 543 -349 21 -30 39 -54 42 -54 2 0 -13 30 -33 68 -93 170 -244
285 -480 368 -44 15 -81 28 -83 30 -2 1 20 90 48 197 l53 194 56 -14 c31 -8
82 -27 114 -42 l58 -28 -27 28 c-33 34 -122 82 -191 102 l-53 16 -14 -52z"/>
<path d="M3016 3168 c-50 -11 -161 -70 -210 -112 l-39 -34 69 33 c38 19 94 40
125 48 l57 14 51 -195 c29 -107 50 -195 49 -196 -2 -1 -37 -12 -78 -25 -156
-49 -331 -156 -411 -253 -44 -53 -103 -147 -97 -154 3 -2 25 21 49 52 114 147
322 272 532 319 72 16 78 19 73 39 -3 11 -31 120 -62 241 -32 121 -60 223 -63
226 -3 3 -23 2 -45 -3z"/>
<path d="M1706 2787 c-32 -127 -61 -237 -63 -243 -3 -8 39 -13 139 -17 112 -4
164 -11 238 -31 116 -32 254 -100 349 -171 56 -43 66 -48 49 -25 -37 51 -147
134 -235 178 -115 58 -295 102 -419 102 -24 0 -44 3 -44 8 0 4 20 90 44 192
42 176 45 185 67 182 20 -2 38 12 39 29 0 6 -78 29 -97 29 -4 0 -35 -105 -67
-233z"/>
<path d="M3169 3008 c-30 -8 -36 -13 -32 -29 4 -14 13 -19 31 -17 25 3 26 1
68 -182 24 -102 43 -188 44 -191 0 -3 -44 -9 -97 -13 -238 -17 -442 -106 -588
-256 l-60 -62 72 54 c185 142 409 218 640 218 91 0 114 3 110 13 -3 7 -31 118
-63 245 -45 176 -63 232 -74 231 -8 -1 -31 -5 -51 -11z"/>
<path d="M1671 2463 c-5 -21 -13 -58 -19 -81 l-10 -44 36 6 c20 4 103 9 183
12 200 9 292 -7 524 -90 62 -22 -75 50 -150 79 -131 51 -220 67 -374 69 l-133
1 6 43 c6 41 5 42 -24 42 -25 0 -30 -5 -39 -37z"/>
<path d="M3265 2458 l7 -43 -87 4 c-113 4 -259 -14 -360 -46 -79 -25 -240
-101 -231 -110 2 -2 17 2 33 10 147 74 465 112 652 78 34 -7 65 -10 68 -7 3 3
-2 39 -12 80 -16 74 -17 76 -46 76 -30 0 -30 -1 -24 -42z"/>
<path d="M1773 2313 c-29 -4 -32 -7 -38 -54 -4 -28 -5 -52 -3 -54 2 -3 20 0
39 5 135 40 423 52 574 25 44 -8 82 -14 85 -14 22 1 -88 44 -167 65 -86 23
-120 27 -278 29 -99 2 -194 1 -212 -2z"/>
<path d="M2809 2304 c-68 -12 -255 -72 -247 -79 2 -2 41 4 88 12 118 21 411
12 530 -15 47 -11 86 -19 88 -17 2 1 0 25 -4 53 l-6 50 -46 6 c-78 11 -324 5
-403 -10z"/>
<path d="M1740 1905 l0 -105 75 0 c60 0 75 3 75 15 0 12 -13 15 -60 15 l-60 0
0 90 c0 73 -3 90 -15 90 -12 0 -15 -18 -15 -105z"/>
<path d="M1960 1905 c0 -87 3 -105 15 -105 12 0 15 18 15 105 0 87 -3 105 -15
105 -12 0 -15 -18 -15 -105z"/>
<path d="M2090 1904 l0 -107 70 5 c99 7 139 48 90 93 -17 16 -18 20 -5 38 19
28 19 33 -5 57 -16 16 -33 20 -85 20 l-65 0 0 -106z m114 80 c9 -3 16 -16 16
-29 0 -26 -17 -35 -66 -35 -32 0 -34 2 -34 35 0 33 2 35 34 35 19 0 41 -3 50
-6z m20 -100 c32 -32 9 -54 -56 -54 l-48 0 0 35 c0 35 0 35 44 35 27 0 51 -6
60 -16z"/>
<path d="M2350 1905 c0 -87 3 -105 15 -105 10 0 15 11 15 35 0 33 2 35 33 35
26 0 36 -7 55 -35 12 -19 29 -35 38 -35 13 0 12 5 -6 34 l-21 35 20 20 c30 30
27 75 -5 100 -20 16 -41 21 -85 21 l-59 0 0 -105z m126 64 c37 -31 2 -79 -57
-79 l-39 0 0 43 c0 24 3 47 8 51 9 10 70 0 88 -15z"/>
<path d="M2644 1953 c-44 -98 -64 -144 -64 -149 0 -15 29 1 38 21 10 23 17 25
72 25 55 0 60 -2 66 -25 4 -15 13 -25 25 -25 17 0 15 8 -17 78 -20 42 -40 89
-46 105 -17 46 -45 35 -74 -30z m66 -19 c11 -26 20 -48 20 -50 0 -2 -20 -4
-44 -4 l-44 0 21 50 c11 28 22 50 24 50 1 0 11 -21 23 -46z"/>
<path d="M2870 1906 c0 -88 3 -106 15 -106 10 0 15 11 15 35 0 32 2 35 30 35
23 0 35 -8 52 -35 13 -19 31 -35 41 -35 16 0 15 4 -7 33 l-24 32 25 29 c18 21
23 35 18 55 -10 43 -30 55 -100 59 l-65 4 0 -106z m122 68 c4 -3 8 -18 8 -34
0 -34 -23 -50 -69 -50 -31 0 -31 1 -31 51 l0 52 42 -7 c22 -4 45 -9 50 -12z"/>
<path d="M3100 2004 c0 -4 16 -32 35 -64 25 -41 35 -69 35 -99 0 -30 4 -41 15
-41 10 0 15 10 15 33 0 20 15 59 40 101 45 77 45 76 27 76 -7 0 -26 -22 -42
-50 -16 -27 -32 -50 -35 -50 -3 0 -19 23 -35 50 -16 28 -35 50 -42 50 -7 0
-13 -3 -13 -6z"/>
</g>
</svg>
